PathFileType	4	(X/Y/Z)	S01_0002_Gait_markers.trc
DataRate	CameraRate	NumFrames	NumMarkers	Units	OrigDataRate	OrigDataStartFrame	OrigNumFrames
250.000000	250.000000	4	54	mm	250.000000	288	330
Frame#	Time	HEAD_ANT			R_HEAD			L_HEAD			C7			R_BACK			L_BACK			STERNUM			R_ACROMION			R_HUM_PROX			R_HUM_ANT			R_HUM_POST			R_ELBOW_LAT			R_ELBOW_MED			R_FOREARM			R_WIRST_LAT			R_WRITS_MED			R_HAND			L_ACROMION			L_HUM_PROX			L_HUM_ANT			L_HUM_POST			L_ELBOW_LAT			L_ELBOW_MED			L_FOREARM			L_WRIST_LAT			L_WIRST_MED			L_HAND			R_ILIAC			SACRUM			L_ILIAC			R_GTROCH			R_THIGH__1			R_THIGH_2			R_THIGH_3			R_THIGH_4			R_SHANK_1			R_SHANK_2			R_SHANK_3			R_SHANK_4			R_HEEL			R_FOOT_LAT			R_FOOT_MED			L_GTROCH			L_THIGH_1			L_THIGH_2			L_THIGH_3			L_THIGH_4			L_SHANK_1			L_SHANK_2			L_SHANK_3			L_SHANK_4			L_HEEL			L_FOOT_LAT			L_FOOT_MED			
		X1	Y1	Z1	X2	Y2	Z2	X3	Y3	Z3	X4	Y4	Z4	X5	Y5	Z5	X6	Y6	Z6	X7	Y7	Z7	X8	Y8	Z8	X9	Y9	Z9	X10	Y10	Z10	X11	Y11	Z11	X12	Y12	Z12	X13	Y13	Z13	X14	Y14	Z14	X15	Y15	Z15	X16	Y16	Z16	X17	Y17	Z17	X18	Y18	Z18	X19	Y19	Z19	X20	Y20	Z20	X21	Y21	Z21	X22	Y22	Z22	X23	Y23	Z23	X24	Y24	Z24	X25	Y25	Z25	X26	Y26	Z26	X27	Y27	Z27	X28	Y28	Z28	X29	Y29	Z29	X30	Y30	Z30	X31	Y31	Z31	X32	Y32	Z32	X33	Y33	Z33	X34	Y34	Z34	X35	Y35	Z35	X36	Y36	Z36	X37	Y37	Z37	X38	Y38	Z38	X39	Y39	Z39	X40	Y40	Z40	X41	Y41	Z41	X42	Y42	Z42	X43	Y43	Z43	X44	Y44	Z44	X45	Y45	Z45	X46	Y46	Z46	X47	Y47	Z47	X48	Y48	Z48	X49	Y49	Z49	X50	Y50	Z50	X51	Y51	Z51	X52	Y52	Z52	X53	Y53	Z53	X54	Y54	Z54	

289	1.152	1805.689331054688	1715.215454101562	-351.7331237792965	1744.112182617188	1663.629516601562	-274.2069396972653	1746.230346679688	1664.904663085938	-421.0606994628902	1607.59765625	1496.004028320312	-350.3280639648434	1536.238891601562	1296.461059570312	-288.0009765624997	1533.757202148438	1303.307006835938	-426.8248596191403	1785.291381835938	1331.3671875	-346.7825927734372	1675.959350585938	1445.276123046875	-175.9728088378903	1625.896240234375	1287.334838867188	-86.630073547363	1682.468139648438	1199.078369140625	-76.11296844482395	1561.124145507812	1207.60888671875	-78.4779968261716	1601.066040039062	1098.93408203125	-64.4018402099607	1585.1845703125	1093.7119140625	-145.9383239746091	1694.919067382812	912.3453979492188	-51.73011398315409	1736.1650390625	845.009033203125	-86.27810668945294	1663.265625	824.6954956054688	-55.54116439819317	1727.96435546875	756.7017822265625	-29.70537185668929	1693.014282226562	1450.997924804688	-515.0715332031247	1689.732666015625	1286.4716796875	-610.0626220703122	1758.1474609375	1211.058959960938	-600.4310913085935	1642.22314453125	1204.969604492188	-644.8281249999998	1708.703125	1105.265747070313	-645.0230712890623	1652.262817382812	1091.57470703125	-592.1010742187498	1844.942993164062	956.9279785156251	-601.3302001953123	1879.949829101562	906.6444702148439	-542.1599121093748	1851.236083984375	872.4496459960939	-606.2247924804685	1936.392822265625	837.2192382812501	-580.4835205078123	1685.07275390625	1045.200439453125	-180.2233581542966	1552.606323242188	1014.658142089844	-338.8890075683591	1664.295776367188	1041.647094726563	-521.2635498046873	1653.702270507812	893.348876953125	-162.7271270751951	1769.6494140625	627.7136840820312	-179.8501739501952	1817.946655273438	661.6217041015625	-173.5578765869139	1854.848999023438	567.0614624023438	-211.0812072753905	1793.844848632812	552.5294189453125	-202.9051055908202	1865.78076171875	336.5135498046876	-198.5309753417968	1924.767822265625	338.8937377929688	-212.2665710449218	1955.007446289062	260.2082824707032	-229.4598388671874	1893.290893554688	240.280990600586	-221.2755584716796	1945.04296875	33.19877243041999	-308.1532287597656	2104.74560546875	63.96363830566411	-221.4333648681641	2144.9130859375	104.0050201416016	-306.8247680664062	1620.270385742188	935.4598999023439	-519.2579345703123	1628.380493164062	645.9291381835939	-509.694854736328	1581.665771484375	679.9411621093751	-521.0890502929686	1542.78466796875	586.9332885742189	-489.1351013183593	1604.57275390625	571.5479736328126	-485.2537231445311	1461.126220703125	327.700164794922	-467.6494140624999	1400.517211914062	332.9609985351564	-471.3037109374999	1361.406860351562	257.0836486816407	-451.2347106933593	1421.341186523438	236.0256652832032	-442.0558471679687	1243.734008789062	105.4891357421876	-375.3706970214844	1398.841552734375	20.82833099365244	-443.8584289550781	1440.272216796875	27.22410774230964	-339.8114318847656	
290	1.156	1811.571166992188	1714.518188476562	-351.2903137207027	1749.985473632812	1663.087890625	-273.6263732910153	1752.111572265625	1664.470825195312	-420.5368652343746	1613.50048828125	1495.32080078125	-349.8385620117184	1541.53759765625	1295.818969726562	-287.5472106933591	1539.865600585938	1302.409912109375	-426.3667297363278	1791.520629882812	1330.891235351562	-346.3403320312497	1681.912475585938	1444.467651367188	-175.524978637695	1632.1201171875	1286.449340820312	-86.25521850585909	1688.797973632812	1198.181884765625	-76.04618835449192	1567.453857421875	1206.676391601562	-78.0800704956052	1607.337280273438	1098.03759765625	-64.3030853271482	1591.212036132812	1092.8720703125	-145.8035736083982	1701.256713867188	911.3231201171875	-51.83995819091777	1742.55078125	844.2001342773438	-86.52825164794903	1669.604614257812	823.6213989257812	-55.88256835937482	1734.223022460938	755.77099609375	-30.11578559875472	1698.98291015625	1450.515869140625	-514.5532836914059	1695.490844726562	1285.87646484375	-609.6098022460934	1763.84619140625	1210.376220703125	-600.1474609374998	1647.728881835938	1204.466552734375	-644.3413085937498	1714.5888671875	1104.617431640625	-644.4201660156248	1658.224609375	1090.897094726563	-591.5045166015623	1850.551635742188	956.2385253906251	-601.3201904296873	1885.714965820312	906.0138549804689	-542.2985229492185	1856.8291015625	871.8377075195314	-606.3410034179685	1942.100341796875	836.5797729492189	-580.8500976562498	1690.96728515625	1044.561279296875	-180.1077880859373	1559.001342773438	1013.913879394531	-338.6920166015623	1669.781860351562	1041.144775390625	-521.0941772460935	1660.360961914062	893.060546875	-162.8385467529295	1777.262329101562	627.7525024414062	-180.1201171874999	1825.32958984375	661.6004638671875	-173.9086456298827	1862.443969726562	567.254638671875	-211.6504058837889	1801.759521484375	552.6622924804688	-203.2722320556639	1872.328857421875	336.3309631347657	-199.1002349853515	1931.203735351562	338.0951232910157	-212.9318389892577	1960.774291992188	258.7536315917969	-230.2245025634765	1898.99169921875	239.7959747314454	-221.5401763916015	1948.700805664062	31.86465072631843	-308.1870422363281	2108.52294921875	62.37053680419927	-221.8701629638672	2148.85888671875	101.9909973144532	-307.2988586425781	1626.567138671875	934.7641601562501	-519.2786865234373	1634.683837890625	646.1307983398439	-509.8003540039061	1588.0595703125	679.6508178710939	-521.5417480468749	1548.981567382812	586.4611816406251	-489.5864257812499	1610.61376953125	570.9605712890626	-485.644073486328	1465.268310546875	327.7648010253907	-468.1140747070312	1404.7998046875	333.594451904297	-471.8965454101562	1364.680297851562	258.072479248047	-451.9749450683593	1424.261352539062	236.5352325439454	-442.8155822753906	1245.27783203125	108.1829833984376	-376.5875244140625	1399.233520507812	20.98600769042979	-443.9682312011719	1440.296142578125	27.32029724121101	-339.9196472167969	
291	1.16	1817.437744140625	1714.097900390625	-350.5899047851559	1755.99365234375	1662.503295898438	-273.055511474609	1758.046997070312	1663.82421875	-419.7968139648434	1619.457275390625	1494.835693359375	-349.2814331054684	1547.543701171875	1295.282348632812	-287.5201110839841	1545.878051757812	1301.891357421875	-426.0651245117185	1797.559326171875	1330.277587890625	-345.8731994628903	1687.874877929688	1443.733032226562	-175.0359497070309	1638.375732421875	1285.530151367188	-86.01760101318331	1695.186157226562	1197.354858398438	-75.9397888183591	1573.716064453125	1205.635131835938	-77.83311462402317	1613.810546875	1097.094604492188	-64.23234558105445	1597.595092773438	1091.960693359375	-145.5205230712888	1707.638793945312	910.2646484375	-52.04585266113261	1748.952270507812	843.2293090820312	-86.88925170898419	1676.152587890625	822.7831420898438	-56.0986900329588	1740.593505859375	754.73974609375	-30.61024284362776	1704.800903320312	1450.038330078125	-514.1381835937497	1701.124145507812	1285.374267578125	-609.1015624999997	1769.709838867188	1210.044189453125	-599.7645874023435	1653.44970703125	1203.939575195313	-643.9078369140623	1720.041015625	1104.077880859375	-643.8995971679685	1663.78955078125	1090.3740234375	-590.6497802734373	1856.155029296875	955.6838378906251	-601.3942871093748	1891.393920898438	905.2907104492189	-542.4484863281248	1862.2470703125	871.2512817382814	-606.4889526367185	1947.516479492188	835.9116821289064	-581.2828979492185	1697.05712890625	1044.127807617188	-179.8668975830076	1565.404296875	1013.128601074219	-338.5635681152341	1676.038330078125	1040.6943359375	-520.9245605468748	1666.723876953125	892.7864379882812	-162.7823944091795	1784.622192382812	627.7186279296875	-180.5244293212889	1832.685180664062	661.49169921875	-174.5839385986327	1870.0087890625	567.4191284179688	-212.2546997070311	1809.318725585938	552.5191040039062	-203.8086547851561	1878.732421875	336.0347290039063	-199.5463104248046	1937.825805664062	336.6975708007813	-215.4140472412109	1966.402221679688	257.8041992187501	-230.7983856201171	1904.392456054688	239.4163665771485	-221.2946472167968	1951.9521484375	30.75383567810065	-308.3621826171875	2111.912353515625	60.51569366455083	-222.3806610107422	2152.540771484375	99.5935363769532	-307.9316101074219	1632.915649414062	934.0817871093751	-519.3323974609373	1640.891967773438	645.4108276367189	-509.8837890624998	1594.346313476562	679.0778198242189	-521.5783691406249	1555.043212890625	585.8389892578126	-489.8194580078124	1616.665283203125	570.4374389648439	-486.253448486328	1469.597778320312	327.7755737304689	-468.8166198730468	1409.168334960938	334.3026428222657	-472.7661437988281	1368.3095703125	259.3426513671876	-453.0054626464843	1427.409912109375	237.151092529297	-443.8893127441406	1246.735595703125	111.0677947998048	-377.8170776367188	1399.595336914062	21.11241340637217	-444.0771789550781	1440.380126953125	27.32795715332039	-340.1878967285156	
292	1.164	1823.229125976562	1713.382202148438	-350.2031860351559	1761.902709960938	1662.0078125	-272.5159912109372	1763.929809570312	1663.439086914062	-419.2597656249997	1625.5302734375	1494.326416015625	-348.6971740722653	1554.166381835938	1294.534301757812	-286.8424987792966	1551.75634765625	1301.456909179688	-425.420227050781	1803.61083984375	1329.760131835938	-345.6258850097653	1693.927368164062	1442.99609375	-174.5532684326169	1644.667358398438	1284.639038085938	-85.67309570312472	1701.486450195312	1196.486572265625	-75.82476806640598	1580.15234375	1204.729125976562	-77.52242279052707	1620.696166992188	1096.00537109375	-64.03017425537085	1603.944946289062	1091.039916992188	-145.5780639648435	1714.281982421875	909.4473876953125	-52.15967178344707	1754.099365234375	841.564453125	-87.8850784301756	1682.611450195312	821.8367309570312	-56.47583389282208	1746.955444335938	753.6796264648438	-31.19820022582991	1710.812133789062	1449.608276367188	-513.7167358398434	1706.861694335938	1284.869750976563	-608.6821899414059	1775.301391601562	1209.32177734375	-599.4163818359373	1658.96875	1203.542114257813	-642.8830566406248	1725.673095703125	1103.564208984375	-643.402404785156	1669.663696289062	1089.853393554688	-590.007385253906	1861.614501953125	954.9926757812501	-601.4093017578123	1896.908447265625	904.5070800781251	-542.6764526367185	1867.76513671875	870.5502319335939	-606.9894409179685	1952.989868164062	835.0289306640626	-581.7489013671873	1703.656127929688	1043.869262695312	-179.6209869384763	1571.779174804688	1012.575134277344	-338.576477050781	1681.651611328125	1040.332641601563	-520.7216186523435	1673.315185546875	892.71630859375	-162.7210693359373	1792.118408203125	627.5259399414062	-181.4696655273436	1840.034423828125	661.610107421875	-174.9303131103514	1877.578491210938	567.5333862304688	-212.9709625244139	1817.0654296875	552.61767578125	-204.3519592285155	1885.006713867188	335.7024230957032	-199.912857055664	1944.09521484375	335.4826660156251	-216.1164245605468	1971.786499023438	256.5509338378907	-231.6911163330078	1909.71435546875	238.9681549072266	-221.6749114990234	1954.87744140625	29.51082611083991	-308.6239929199219	2114.989013671875	58.40473175048833	-222.9469146728516	2155.810546875	97.33510589599616	-308.4299011230469	1639.237915039062	933.3478393554689	-519.0621337890623	1647.524536132812	644.7589721679689	-510.2520446777342	1600.765869140625	678.5826416015626	-521.6216430664061	1561.409790039062	585.3992919921876	-490.2677612304686	1623.128540039062	569.7832031250001	-486.2647399902343	1474.08251953125	327.7407531738282	-469.5534362792968	1413.729125976562	335.1991271972657	-473.5213928222656	1371.994873046875	261.2139587402345	-454.1314392089843	1430.9609375	238.0467529296876	-444.9819946289062	1248.585571289062	114.1403579711915	-378.8009338378906	1399.927978515625	21.4175968170167	-444.33740234375	1440.445190429688	27.44266128540047	-340.3136901855469	
